<svg width="47" height="787" viewBox="0 0 47 787" fill="none" xmlns="http://www.w3.org/2000/svg">
<path d="M28.8332 1L22.2069 7.62623C21.8164 8.01675 21.1833 8.01675 20.7927 7.62623L18.1665 5" stroke="white" stroke-width="1.75" stroke-linecap="round"/>
<path d="M23.5 45V63.6667" stroke="#636363" stroke-width="2" stroke-linecap="round" stroke-linejoin="round"/>
<path d="M14.1665 54.3334H32.8332" stroke="#636363" stroke-width="2" stroke-linecap="round" stroke-linejoin="round"/>
<path d="M20.5 118.333L26.5 112.333L20.5 106.333" stroke="#636363" stroke-width="1.5" stroke-linecap="round" stroke-linejoin="round"/>
<path d="M26.5 172.333L20.5 166.333L26.5 160.333" stroke="#636363" stroke-width="1.5" stroke-linecap="round" stroke-linejoin="round"/>
<path d="M15.5 225.333H31.5" stroke="#636363" stroke-width="1.5" stroke-linecap="square" stroke-linejoin="round"/>
<path d="M23.5 281.333V297.333" stroke="#636363" stroke-width="1.5" stroke-linecap="square" stroke-linejoin="round"/>
<path d="M15.5 289.333H31.5" stroke="#636363" stroke-width="1.5" stroke-linecap="square" stroke-linejoin="round"/>
<path d="M30.5255 343.333L20.9026 352.956C20.512 353.347 19.8789 353.347 19.4883 352.956L15.5 348.968" stroke="#EA8D1B" stroke-width="1.75" stroke-linecap="round"/>
<path d="M17.625 423.333L29.375 412.333L17.625 401.333" stroke="#636363" stroke-width="1.5" stroke-linecap="round" stroke-linejoin="round"/>
<path d="M29.375 497.333L17.625 486.333L29.375 475.333" stroke="#636363" stroke-width="1.5" stroke-linecap="round" stroke-linejoin="round"/>
<path d="M24.5625 545.314L29.875 540.328" stroke="#EA8D1B" stroke-width="2" stroke-linecap="round" stroke-linejoin="round"/>
<path d="M26.3335 540.328H29.8752V543.652" stroke="#EA8D1B" stroke-width="2" stroke-linecap="round" stroke-linejoin="round"/>
<path d="M29.875 547.641V550.965C29.875 551.317 29.7257 551.656 29.4601 551.905C29.1944 552.154 28.8341 552.294 28.4583 552.294H18.5417C18.1659 552.294 17.8056 552.154 17.5399 551.905C17.2743 551.656 17.125 551.317 17.125 550.965V541.657C17.125 541.305 17.2743 540.966 17.5399 540.717C17.8056 540.468 18.1659 540.328 18.5417 540.328H22.0833" stroke="#EA8D1B" stroke-width="2" stroke-linecap="round" stroke-linejoin="round"/>
<path d="M17.5 590.289L29.5 602.289" stroke="#636363" stroke-width="1.5" stroke-linecap="square" stroke-linejoin="round"/>
<path d="M29.5 590.289L17.5 602.289" stroke="#636363" stroke-width="1.5" stroke-linecap="square" stroke-linejoin="round"/>
<path d="M17.5 644.289L29.5 656.289" stroke="white" stroke-width="1.5" stroke-linecap="square" stroke-linejoin="round"/>
<path d="M29.5 644.289L17.5 656.289" stroke="white" stroke-width="1.5" stroke-linecap="square" stroke-linejoin="round"/>
<path d="M19.5 716.289L27.5 708.289L19.5 700.289" stroke="#EA8D1B" stroke-width="3" stroke-linecap="round" stroke-linejoin="round"/>
<path d="M27.5 778.289L19.5 770.289L27.5 762.289" stroke="#EA8D1B" stroke-width="3" stroke-linecap="round" stroke-linejoin="round"/>
</svg>
